<svg xmlns="http://www.w3.org/2000/svg" width="20" height="20" viewBox="0 0 24 24" fill="none">
  <rect width="24" height="24" rx="6" fill="#0F121A"/>
  <path d="M12 4a8 8 0 0 0-2.5 15.6c.4.1.5-.2.5-.4v-1.3c-2 .4-2.4-.9-2.4-.9-.3-.8-.8-1-.8-1-.7-.5.1-.5.1-.5.8.1 1.2.8 1.2.8.7 1.2 1.8.8 2.2.6.1-.5.3-.8.5-1-1.7-.2-3.6-.9-3.6-3.9 0-.9.3-1.6.8-2.2-.1-.2-.4-1 .1-2.1 0 0 .7-.2 2.2.8.6-.2 1.2-.3 1.8-.3s1.2.1 1.8.3c1.5-1 2.2-.8 2.2-.8.5 1.1.2 1.9.1 2.1.5.6.8 1.3.8 2.2 0 3-1.9 3.6-3.6 3.9.3.2.6.7.6 1.4v2c0 .2.1.5.6.4A8 8 0 0 0 12 4z" fill="#E6EAF2"/>
</svg>

