<svg width="600" height="720" viewBox="0 0 600 720" fill="none" xmlns="http://www.w3.org/2000/svg">
  <defs>
    <linearGradient id="bg" x1="0" y1="0" x2="1" y2="1">
      <stop offset="0" stop-color="#0F1728" />
      <stop offset="1" stop-color="#1A2238" />
    </linearGradient>
    <linearGradient id="accent" x1="0" y1="0" x2="1" y2="1">
      <stop offset="0" stop-color="#5B8CFF" />
      <stop offset="1" stop-color="#AA5BFF" />
    </linearGradient>
  </defs>
  <rect width="600" height="720" rx="40" fill="url(#bg)" />
  <circle cx="300" cy="220" r="120" fill="#162033" />
  <path d="M220 220 C220 170 260 140 300 140 C340 140 380 170 380 220" stroke="url(#accent)" stroke-width="14" stroke-linecap="round" />
  <circle cx="260" cy="220" r="16" fill="#DCE3F5" />
  <circle cx="340" cy="220" r="16" fill="#DCE3F5" />
  <path d="M248 260 C268 280 332 280 352 260" stroke="#8CA0C8" stroke-width="10" stroke-linecap="round" />
  <path d="M156 520 C196 420 404 420 444 520" stroke="#0F1728" stroke-width="70" stroke-linecap="round" />
  <path d="M176 500 C216 430 384 430 424 500" stroke="url(#accent)" stroke-width="22" stroke-linecap="round" />
  <rect x="130" y="520" width="340" height="120" rx="30" fill="#121B30" stroke="#1F2944" />
  <text x="160" y="580" fill="#DCE3F5" font-family="'Inter', sans-serif" font-weight="600" font-size="32">Exploring tech · design · hardware</text>
  <text x="160" y="620" fill="#8CA0C8" font-family="'Inter', sans-serif" font-size="20">Documenting bilingual workflows & immersive systems</text>
</svg>

