<svg width="320" height="320" viewBox="0 0 320 320" fill="none" xmlns="http://www.w3.org/2000/svg">
  <defs>
    <linearGradient id="bg" x1="0" y1="0" x2="1" y2="1">
      <stop offset="0" stop-color="#1B2338" />
      <stop offset="1" stop-color="#111A2C" />
    </linearGradient>
    <linearGradient id="accent" x1="0" y1="0" x2="1" y2="1">
      <stop offset="0" stop-color="#5B8CFF" />
      <stop offset="1" stop-color="#AA5BFF" />
    </linearGradient>
  </defs>
  <rect width="320" height="320" rx="160" fill="url(#bg)" />
  <circle cx="160" cy="120" r="60" fill="#192338" />
  <path d="M120 118 C120 96 136 80 160 80 C184 80 200 96 200 118" stroke="url(#accent)" stroke-width="8" stroke-linecap="round" />
  <path d="M128 140 C140 150 180 150 192 140" stroke="#8CA0C8" stroke-width="6" stroke-linecap="round" />
  <circle cx="140" cy="118" r="10" fill="#DCE3F5" />
  <circle cx="180" cy="118" r="10" fill="#DCE3F5" />
  <path d="M80 234 C104 198 216 198 240 234" stroke="#101A2C" stroke-width="22" stroke-linecap="round" />
  <path d="M96 226 C120 196 200 196 224 226" stroke="#5B8CFF" stroke-width="10" stroke-linecap="round" />
</svg>

