<svg width="1200" height="630" viewBox="0 0 1200 630" fill="none" xmlns="http://www.w3.org/2000/svg">
  <defs>
    <linearGradient id="bg" x1="0" y1="0" x2="1" y2="1">
      <stop offset="0" stop-color="#121B30" />
      <stop offset="1" stop-color="#0E1526" />
    </linearGradient>
    <linearGradient id="nodes" x1="0" y1="0" x2="1" y2="1">
      <stop offset="0" stop-color="#4FFFD7" />
      <stop offset="1" stop-color="#5B8CFF" />
    </linearGradient>
  </defs>
  <rect width="1200" height="630" rx="32" fill="url(#bg)" />
  <circle cx="320" cy="260" r="54" fill="#13213A" stroke="#22324C" stroke-width="4" />
  <circle cx="530" cy="160" r="54" fill="#13213A" stroke="#22324C" stroke-width="4" />
  <circle cx="760" cy="240" r="54" fill="#13213A" stroke="#22324C" stroke-width="4" />
  <circle cx="960" cy="360" r="54" fill="#13213A" stroke="#22324C" stroke-width="4" />
  <circle cx="560" cy="380" r="54" fill="#13213A" stroke="#22324C" stroke-width="4" />
  <path d="M350 250 L500 170" stroke="url(#nodes)" stroke-width="8" stroke-linecap="round" />
  <path d="M584 184 L720 230" stroke="url(#nodes)" stroke-width="8" stroke-linecap="round" />
  <path d="M792 270 L920 340" stroke="url(#nodes)" stroke-width="8" stroke-linecap="round" />
  <path d="M520 410 L920 360" stroke="url(#nodes)" stroke-width="8" stroke-linecap="round" stroke-dasharray="18 14" />
  <text x="292" y="270" fill="#4FFFD7" font-family="'Inter', sans-serif" font-weight="600" font-size="18">Node A</text>
  <text x="500" y="140" fill="#4FFFD7" font-family="'Inter', sans-serif" font-weight="600" font-size="18">Node B</text>
  <text x="720" y="230" fill="#4FFFD7" font-family="'Inter', sans-serif" font-weight="600" font-size="18">Node C</text>
  <text x="930" y="360" fill="#4FFFD7" font-family="'Inter', sans-serif" font-weight="600" font-size="18">Node D</text>
  <text x="520" y="420" fill="#4FFFD7" font-family="'Inter', sans-serif" font-weight="600" font-size="18">Node E</text>
  <rect x="160" y="440" width="880" height="120" rx="24" fill="#101A2C" stroke="#1F2942" />
  <text x="200" y="490" fill="#DCE3F5" font-family="'Inter', sans-serif" font-weight="600" font-size="32">QMesh Audio Grid</text>
  <text x="200" y="530" fill="#8CA0C8" font-family="'Inter', sans-serif" font-size="20">Edge audio routing for creative coding labs · Sub-4ms latency · Rust · WebSockets</text>
</svg>

