<svg width="1200" height="630" viewBox="0 0 1200 630" fill="none" xmlns="http://www.w3.org/2000/svg">
  <defs>
    <linearGradient id="bg" x1="0" y1="0" x2="1" y2="1">
      <stop offset="0" stop-color="#101A2C" />
      <stop offset="1" stop-color="#141F36" />
    </linearGradient>
    <linearGradient id="chart" x1="0" y1="0" x2="1" y2="1">
      <stop offset="0" stop-color="#5B8CFF" />
      <stop offset="1" stop-color="#AA5BFF" />
    </linearGradient>
  </defs>
  <rect width="1200" height="630" rx="32" fill="url(#bg)" />
  <rect x="150" y="140" width="900" height="320" rx="28" fill="#0F192A" stroke="#1E2842" stroke-width="2" />
  <g transform="translate(200 190)">
    <text fill="#8EA1C7" font-family="'Inter', sans-serif" font-size="20">Read depth</text>
    <rect y="40" width="80" height="160" rx="18" fill="#1C2740" />
    <rect x="100" y="80" width="80" height="120" rx="18" fill="#1C2740" />
    <rect x="200" y="20" width="80" height="180" rx="18" fill="#1C2740" />
    <rect x="300" y="60" width="80" height="140" rx="18" fill="#1C2740" />
    <rect x="200" y="20" width="80" height="180" rx="18" fill="url(#chart)" opacity="0.85" />
  </g>
  <g transform="translate(550 200)">
    <rect width="420" height="120" rx="18" fill="#131F33" stroke="#24324A" />
    <text x="32" y="54" fill="#5B8CFF" font-family="'Inter', sans-serif" font-weight="600" font-size="24">Astro Observatory</text>
    <text x="32" y="90" fill="#8CA0C8" font-family="'Inter', sans-serif" font-size="18">Edge metrics · Privacy-first analytics</text>
  </g>
  <g transform="translate(550 340)">
    <rect width="420" height="80" rx="18" fill="#101A2C" stroke="#1E2842" />
    <text x="32" y="52" fill="#8CA0C8" font-family="'Inter', sans-serif" font-size="18">LCP, scroll depth, topic clusters, Pagefind search</text>
  </g>
  <text x="150" y="520" fill="#DCE3F5" font-family="'Inter', sans-serif" font-weight="600" font-size="36">Astro Observatory</text>
  <text x="150" y="560" fill="#8CA0C8" font-family="'Inter', sans-serif" font-size="20">Content analytics dashboards shipped with Astro Islands</text>
</svg>

