<svg viewBox="0 0 24 24" xmlns="http://www.w3.org/2000/svg" fill="none">
  <path fill="currentColor" d="M20.317 4.37a19.79 19.79 0 0 0-4.885-1.515c-.21.375-.445.865-.608 1.25-1.845-.276-3.68-.276-5.487 0-.164-.393-.406-.874-.618-1.25a.077.077 0 0 0-.078-.037 19.736 19.736 0 0 0-4.885 1.515C.533 9.046-.319 13.58.099 18.058c2.053 1.508 4.041 2.423 5.993 3.03.462-.63.873-1.295 1.226-1.994a11.29 11.29 0 0 1-1.872-.892c.126-.094.252-.192.372-.291 3.928 1.793 8.18 1.793 12.062 0 .12.099.246.198.373.292-.57.32-1.21.63-1.873.891.36.698.772 1.363 1.225 1.993 1.962-.607 3.95-1.522 6.003-3.03.5-5.177-.838-9.674-3.548-13.66ZM8.02 15.331c-1.183 0-2.157-1.086-2.157-2.419 0-1.333.956-2.419 2.157-2.419 1.211 0 2.176 1.095 2.157 2.419 0 1.333-.956 2.419-2.157 2.419Zm7.975 0c-1.183 0-2.157-1.086-2.157-2.419 0-1.333.955-2.419 2.157-2.419 1.21 0 2.175 1.095 2.157 2.419 0 1.333-.946 2.419-2.157 2.419Z"/>
</svg>
