<svg width="1200" height="630" viewBox="0 0 1200 630" fill="none" xmlns="http://www.w3.org/2000/svg">
  <defs>
    <linearGradient id="bg" x1="0" y1="0" x2="1" y2="1">
      <stop offset="0" stop-color="#1A2035" />
      <stop offset="1" stop-color="#0F172A" />
    </linearGradient>
    <linearGradient id="badge" x1="0" y1="0" x2="1" y2="1">
      <stop offset="0" stop-color="#FFB86C" />
      <stop offset="1" stop-color="#FF6AC1" />
    </linearGradient>
  </defs>
  <rect width="1200" height="630" rx="32" fill="url(#bg)" />
  <rect x="120" y="120" width="960" height="360" rx="28" fill="#10182B" stroke="#1E2740" stroke-width="2" />
  <g transform="translate(170 180)">
    <rect width="220" height="70" rx="18" fill="#16223A" />
    <text x="24" y="44" fill="#88A0CC" font-family="'Inter', sans-serif" font-size="22">Islands Architecture</text>
  </g>
  <g transform="translate(430 180)">
    <rect width="180" height="70" rx="18" fill="#16223A" />
    <text x="28" y="44" fill="#88A0CC" font-family="'Inter', sans-serif" font-size="22">SSR / SSG</text>
  </g>
  <g transform="translate(650 180)">
    <rect width="320" height="70" rx="18" fill="#16223A" />
    <text x="28" y="44" fill="#88A0CC" font-family="'Inter', sans-serif" font-size="22">Content Collections</text>
  </g>
  <g transform="translate(170 280)">
    <rect width="260" height="70" rx="18" fill="#16223A" />
    <text x="32" y="44" fill="#88A0CC" font-family="'Inter', sans-serif" font-size="22">Adapters &amp; renderers</text>
  </g>
  <g transform="translate(470 280)">
    <rect width="220" height="70" rx="18" fill="#16223A" />
    <text x="30" y="44" fill="#88A0CC" font-family="'Inter', sans-serif" font-size="22">Partial hydration</text>
  </g>
  <g transform="translate(720 280)">
    <rect width="260" height="70" rx="18" fill="#16223A" />
    <text x="32" y="44" fill="#88A0CC" font-family="'Inter', sans-serif" font-size="22">Project structure</text>
  </g>
  <rect x="520" y="400" width="160" height="42" rx="21" fill="url(#badge)" />
  <text x="548" y="428" fill="#1A1A1A" font-family="'Inter', sans-serif" font-weight="600" font-size="20">Cheat Sheet</text>
  <text x="180" y="520" fill="#DCE3F5" font-family="'Inter', sans-serif" font-weight="600" font-size="36">Astro Keywords &amp; Concepts</text>
</svg>

